<svg xmlns="http://www.w3.org/2000/svg" viewBox="0 0 512 512">
  <defs>
    <linearGradient id="bg" x1="72" y1="48" x2="436" y2="468" gradientUnits="userSpaceOnUse">
      <stop stop-color="#6f9878"/>
      <stop offset="1" stop-color="#355b42"/>
    </linearGradient>
    <filter id="shadow" x="-20%" y="-20%" width="140%" height="140%">
      <feDropShadow dx="0" dy="18" stdDeviation="18" flood-color="#173320" flood-opacity=".25"/>
    </filter>
  </defs>
  <rect width="512" height="512" rx="116" fill="url(#bg)"/>
  <path d="M128 112c51 0 91 9 128 34 37-25 77-34 128-34 17 0 30 13 30 30v240c0 16-13 29-29 29-48 0-84 8-117 30a22 22 0 0 1-24 0c-33-22-69-30-117-30-16 0-29-13-29-29V142c0-17 13-30 30-30Z" fill="#f8faf6" filter="url(#shadow)"/>
  <path d="M256 158v239M132 166c49 0 86 8 124 31m124-31c-49 0-86 8-124 31" fill="none" stroke="#cddace" stroke-width="13" stroke-linecap="round"/>
  <path d="M294 237c46-5 81-27 104-66-4 72-32 122-91 151l-38 55 13-72c-17-23-12-49 12-68Z" fill="#527a5c"/>
  <path d="M285 328c29-49 60-87 103-135" fill="none" stroke="#f3f7f1" stroke-width="9" stroke-linecap="round"/>
</svg>
